<svg width="44" height="22" viewBox="0 0 44 22" fill="none" xmlns="http://www.w3.org/2000/svg">
<path d="M41.0206 8.07044H40.2458V5.83428C40.2458 4.70803 39.3265 3.79136 38.197 3.79136H36.8177V3.04293C36.8177 1.91667 35.8984 1 34.7689 1H33.2479C32.1184 1 31.199 1.91667 31.199 3.04293V8.06227H12.8014V3.04293C12.8014 1.91667 11.8821 1 10.7526 1H9.2316C8.10208 1 7.18274 1.91667 7.18274 3.04293V4.43404H5.80398C4.67445 4.43404 3.75512 5.35071 3.75512 6.47696V8.34348H2.97992C1.88848 8.343 1 9.25967 1 10.3859V11.8866C1 13.0129 1.88848 13.9296 2.97992 13.9296H3.75463V16.1657C3.75463 17.292 4.67397 18.2086 5.80349 18.2086H7.18226V18.9571C7.18226 20.0833 8.10159 21 9.23112 21H10.7521C11.8816 21 12.801 20.0833 12.801 18.9571V13.6647H31.1986V18.9571C31.1986 20.0833 32.1179 21 33.2474 21H34.7684C35.8979 21 36.8173 20.0833 36.8173 18.9571V17.566H38.1965C39.326 17.566 40.2454 16.6493 40.2454 15.523V13.657H41.0201C42.112 13.657 43 12.7403 43 11.6141V10.1134C43.001 8.98712 42.1125 8.07044 41.0206 8.07044ZM2.97992 12.7278C2.5528 12.7278 2.20521 12.3505 2.20521 11.8866V10.3859C2.20521 9.92206 2.5528 9.54471 2.97992 9.54471H3.75463V12.7278H2.97992ZM5.80398 17.0069C5.33876 17.0069 4.96033 16.6296 4.96033 16.1657V6.47648C4.96033 6.01262 5.33876 5.63528 5.80398 5.63528H7.18274V17.0064L5.80398 17.0069ZM11.5962 18.9571C11.5962 19.4209 11.2178 19.7983 10.7526 19.7983H9.2316C8.76639 19.7983 8.38795 19.4209 8.38795 18.9571V3.04293C8.38795 2.57906 8.76639 2.20172 9.2316 2.20172H10.7526C11.2178 2.20172 11.5962 2.57906 11.5962 3.04293V18.9571ZM12.8014 12.463V9.26399H31.199V12.463H12.8014ZM35.6125 18.9571C35.6125 19.4209 35.2341 19.7983 34.7689 19.7983H33.2479C32.7827 19.7983 32.4043 19.4209 32.4043 18.9571V3.04293C32.4043 2.57906 32.7827 2.20172 33.2479 2.20172H34.7689C35.2341 2.20172 35.6125 2.57906 35.6125 3.04293V18.9571ZM39.0406 15.523C39.0406 15.9869 38.6622 16.3642 38.197 16.3642H36.8177V4.99308H38.197C38.6622 4.99308 39.0406 5.37042 39.0406 5.83428V15.523ZM41.7958 11.6141C41.7958 12.0779 41.4482 12.4553 41.021 12.4553H40.2463V9.27217H41.021C41.4482 9.27217 41.7958 9.6495 41.7958 10.1134V11.6141Z" fill="#ADF350" stroke="#ADF350" stroke-width="0.6"/>
</svg>
