<svg width="87" height="140" viewBox="0 0 87 140" fill="none" xmlns="http://www.w3.org/2000/svg">
<g opacity="0.5">
<path d="M49.3753 40.2183H30.9583C30.5499 40.2183 30.1501 40.1002 29.8065 39.8779C29.463 39.6557 29.1902 39.3387 29.0207 38.9647L8.19347 -6.96783C8.04559 -7.29413 7.98144 -7.65257 8.00691 -8.01029C8.03238 -8.36801 8.14665 -8.71358 8.33925 -9.01532C8.53185 -9.31706 8.79661 -9.56533 9.10928 -9.73737C9.42195 -9.9094 9.77252 -9.99971 10.1289 -10H28.5481C28.9565 -10.0001 29.3563 -9.88193 29.6998 -9.65967C30.0433 -9.4374 30.3161 -9.12038 30.4856 -8.74642L45.0809 23.4653C45.2074 23.7445 45.2729 24.0477 45.2729 24.3546C45.2729 24.6614 45.2074 24.9647 45.0809 25.2439L40.2456 35.9175H49.369C49.9336 35.9175 50.4752 36.1433 50.8745 36.5452C51.2738 36.947 51.4981 37.4921 51.4981 38.0604V38.0754C51.4981 38.6426 51.2747 39.1867 50.8767 39.5884C50.4788 39.9901 49.9389 40.2166 49.3753 40.2183ZM32.3273 35.9325H35.5636L40.8098 24.361L27.179 -5.71425H13.4418L32.3273 35.9325Z" fill="#ADF350"/>
<path d="M55.3727 40.2033H36.9407C36.5842 40.2033 36.2333 40.1133 35.9204 39.9414C35.6074 39.7695 35.3424 39.5213 35.1495 39.2195C34.9567 38.9177 34.8422 38.572 34.8166 38.2141C34.7911 37.8562 34.8552 37.4976 35.0032 37.1711L55.8304 -8.74856C56.0001 -9.12179 56.2727 -9.43814 56.6157 -9.65999C56.9588 -9.88184 57.358 -9.99985 57.7658 -10H76.2021C76.5587 -9.99987 76.9096 -9.90959 77.2225 -9.73744C77.5354 -9.56529 77.8004 -9.31678 77.993 -9.01474C78.1857 -8.7127 78.2999 -8.36679 78.3251 -8.00877C78.3503 -7.65075 78.2858 -7.29208 78.1374 -6.96569L57.3102 38.9497C57.1407 39.3237 56.8679 39.6407 56.5244 39.8629C56.1809 40.0852 55.7811 40.2033 55.3727 40.2033ZM40.2558 35.9175H54.01L72.8891 -5.71425H59.1327L40.2558 35.9175Z" fill="#ADF350"/>
<path d="M65.5299 47.8945H20.8072C20.2426 47.8945 19.701 47.6687 19.3017 47.2668C18.9024 46.865 18.6781 46.3199 18.6781 45.7516V31.8743C18.6781 31.306 18.9024 30.7609 19.3017 30.3591C19.701 29.9572 20.2426 29.7314 20.8072 29.7314H28.1549C28.7196 29.7314 29.2612 29.9572 29.6604 30.3591C30.0597 30.7609 30.2841 31.306 30.2841 31.8743C30.2841 32.4426 30.0597 32.9877 29.6604 33.3896C29.2612 33.7914 28.7196 34.0172 28.1549 34.0172H22.9364V43.6087H63.4114V34.0172H58.1779C57.6133 34.0172 57.0717 33.7914 56.6724 33.3896C56.2731 32.9877 56.0488 32.4426 56.0488 31.8743C56.0488 31.306 56.2731 30.7609 56.6724 30.3591C57.0717 29.9572 57.6133 29.7314 58.1779 29.7314H65.5299C66.0946 29.7314 66.6361 29.9572 67.0354 30.3591C67.4347 30.7609 67.659 31.306 67.659 31.8743V45.7516C67.659 46.3199 67.4347 46.865 67.0354 47.2668C66.6361 47.6687 66.0946 47.8945 65.5299 47.8945Z" fill="#ADF350"/>
<path d="M43.1641 140C34.6273 140 26.2821 137.453 19.1838 132.68C12.0855 127.907 6.55303 121.122 3.28594 113.184C0.0188449 105.247 -0.836085 96.512 0.829261 88.0852C2.49461 79.6584 6.60543 71.9179 12.6419 65.8425C18.6783 59.7672 26.3692 55.6298 34.742 53.9537C43.1148 52.2777 51.7934 53.1381 59.6803 56.4263C67.5672 59.7144 74.3082 65.2826 79.0507 72.4267C83.7933 79.5707 86.3244 87.9698 86.324 96.5617C86.311 108.078 81.7597 119.119 73.6684 127.263C65.5772 135.406 54.6068 139.987 43.1641 140ZM43.1641 57.4071C35.4696 57.4066 27.9478 59.7026 21.5498 64.0047C15.1519 68.3069 10.1651 74.4218 7.22028 81.5764C4.27543 88.7309 3.5047 96.6036 5.00556 104.199C6.50643 111.794 10.2115 118.771 15.6522 124.247C21.0929 129.723 28.0248 133.453 35.5715 134.964C43.1181 136.475 50.9404 135.699 58.0493 132.736C65.1581 129.773 71.2342 124.754 75.5091 118.315C79.784 111.876 82.0657 104.306 82.0657 96.5617C82.0544 86.1811 77.9523 76.2289 70.6593 68.8885C63.3664 61.5481 53.4782 57.419 43.1641 57.4071Z" fill="#ADF350"/>
<path d="M43.1659 129.896C36.615 129.896 30.2112 127.941 24.7641 124.279C19.3171 120.616 15.0716 115.41 12.5644 109.319C10.0573 103.228 9.40126 96.5249 10.6792 90.0584C11.9571 83.5919 15.1116 77.6521 19.7438 72.99C24.3759 68.328 30.2777 65.1531 36.7027 63.867C43.1278 62.5808 49.7875 63.2412 55.8396 65.7644C61.8918 68.2877 67.0645 72.5606 70.7037 78.0428C74.3429 83.525 76.2851 89.9701 76.2847 96.5633C76.2746 105.4 72.782 113.873 66.5732 120.122C60.3645 126.37 51.9465 129.885 43.1659 129.896ZM43.1659 67.5145C37.4573 67.514 31.8768 69.2174 27.1301 72.409C22.3834 75.6007 18.6837 80.1374 16.4988 85.4453C14.3139 90.7532 13.742 96.594 14.8555 102.229C15.9689 107.864 18.7176 113.04 22.7541 117.103C26.7905 121.166 31.9333 123.933 37.5322 125.054C43.1311 126.175 48.9345 125.6 54.2086 123.401C59.4826 121.202 63.9905 117.479 67.1621 112.702C70.3336 107.925 72.0264 102.309 72.0264 96.5633C72.018 88.862 68.9747 81.4786 63.5642 76.0328C58.1537 70.587 50.8178 67.5235 43.1659 67.5145Z" fill="#ADF350"/>
<path d="M50.0111 57.8954C49.4464 57.8954 48.9049 57.6696 48.5056 57.2677C48.1063 56.8659 47.882 56.3208 47.882 55.7525V47.901H38.4477V55.7525C38.4477 56.3208 38.2234 56.8659 37.8241 57.2677C37.4248 57.6696 36.8833 57.8954 36.3186 57.8954C35.7539 57.8954 35.2124 57.6696 34.8131 57.2677C34.4138 56.8659 34.1895 56.3208 34.1895 55.7525V45.7581C34.1895 45.1898 34.4138 44.6447 34.8131 44.2429C35.2124 43.841 35.7539 43.6152 36.3186 43.6152H50.0111C50.5758 43.6152 51.1173 43.841 51.5166 44.2429C51.9159 44.6447 52.1402 45.1898 52.1402 45.7581V55.7525C52.1402 56.3208 51.9159 56.8659 51.5166 57.2677C51.1173 57.6696 50.5758 57.8954 50.0111 57.8954Z" fill="#ADF350"/>
<path d="M53.3344 112.545C52.9894 112.545 52.6496 112.46 52.3443 112.299L43.1635 107.443L33.9826 112.299C33.631 112.485 33.2347 112.568 32.8384 112.539C32.4422 112.51 32.0619 112.371 31.7405 112.136C31.4191 111.901 31.1694 111.58 31.0196 111.21C30.8699 110.839 30.8261 110.434 30.8932 110.04L32.6476 99.7542L25.2191 92.4684C24.9344 92.1894 24.733 91.8357 24.6376 91.4475C24.5423 91.0592 24.5568 90.6519 24.6795 90.2715C24.8023 89.8911 25.0283 89.5529 25.3321 89.2951C25.6359 89.0373 26.0054 88.8702 26.3986 88.8127L36.6632 87.3127L41.2472 77.9483C41.443 77.6137 41.7222 77.3364 42.0572 77.1437C42.3921 76.951 42.7713 76.8496 43.1571 76.8496C43.5429 76.8496 43.922 76.951 44.257 77.1437C44.592 77.3364 44.8711 77.6137 45.0669 77.9483L49.6573 87.3084L59.9219 88.8084C60.3152 88.8659 60.6846 89.033 60.9884 89.2908C61.2922 89.5486 61.5183 89.8868 61.641 90.2672C61.7637 90.6476 61.7783 91.0549 61.6829 91.4432C61.5876 91.8315 61.3862 92.1851 61.1015 92.4641L53.6729 99.7499L55.4273 110.036C55.4797 110.343 55.4647 110.659 55.3834 110.96C55.302 111.261 55.1563 111.541 54.9563 111.779C54.7564 112.018 54.5071 112.21 54.2258 112.341C53.9445 112.473 53.6381 112.541 53.328 112.541L53.3344 112.545ZM43.1635 102.879C43.5085 102.878 43.8485 102.963 44.1535 103.125L50.5069 106.485L49.2933 99.3663C49.2347 99.0235 49.2599 98.6716 49.3668 98.3408C49.4736 98.01 49.6588 97.7104 49.9065 97.4678L55.0462 92.4277L47.9434 91.3906C47.6018 91.3406 47.2773 91.2078 46.998 91.0036C46.7187 90.7994 46.4929 90.53 46.3401 90.2184L43.1635 83.7384L39.9868 90.2163C39.834 90.5278 39.6082 90.7973 39.3289 91.0015C39.0496 91.2057 38.7252 91.3385 38.3835 91.3884L31.2807 92.4256L36.4205 97.4678C36.6681 97.7104 36.8533 98.01 36.9602 98.3408C37.067 98.6716 37.0922 99.0235 37.0337 99.3663L35.8201 106.485L42.1734 103.125C42.4784 102.963 42.8184 102.878 43.1635 102.879Z" fill="#ADF350"/>
</g>
</svg>
