<svg xmlns="http://www.w3.org/2000/svg" width="66.088" height="75.001" viewBox="0 0 66.088 75.001">
  <g id="Group_14" data-name="Group 14" transform="translate(-61 -520)">
    <path id="Path_474" data-name="Path 474" d="M67.61,439.5H51.828l-1.23,3.909c-.176,4.8.293,6.863,1.23,11.576H67.61Z" transform="translate(27 133)" fill="#eab088" fill-rule="evenodd"/>
    <path id="Path_475" data-name="Path 475" d="M59.058,411.153c-4.945,1.634-5.818,1.491-9.8,4.868l-1.544,1.722c-6.245-.587-9.97,4.324-9.5,11.873-5.965,12.045-4.144,12.711-3.219,21.612.313,3.014,1.688,4.338,1.94,5.766l10.005-9.271c3.416-1.449,4.676-2.424,5.1-6.293l15,3.8v-33.97Z" transform="translate(27 133)" fill="#eab088" fill-rule="evenodd"/>
    <path id="Path_476" data-name="Path 476" d="M59.058,411.153c-4.945,1.634-5.818,1.491-9.8,4.868l-1.544,1.722c-6.245-.587-9.97,4.324-9.5,11.873-5.965,12.045-4.144,12.711-3.219,21.612.313,3.014,1.292,3.794,1.94,5.766l.844-.789a32.848,32.848,0,0,1-1.89-6.739c-1.986-8.882.016-8.822,2.668-18.747.583-2.18.828-4.755,1.92-7.029,1.2-2.5,3.1-4.472,5.992-4.419.9.017,1.73.631,2.275,2.12a2.422,2.422,0,0,0-.346-2.968c4.148-5.279,7.706-5.073,11.477-6.382l7.172,1.753v-2.529Z" transform="translate(27 133)" fill="#e6a278" fill-rule="evenodd"/>
    <path id="Path_477" data-name="Path 477" d="M59.83,410.411l-.446-.806a72.924,72.924,0,0,0,.447,9.359c.625,3.467,2.415,5.458,7.224,8.508V414.347Z" transform="translate(27 133)" fill="#e6a278" fill-rule="evenodd"/>
    <path id="Path_478" data-name="Path 478" d="M67.043,438.831c-2.179,4.155-7.372,3.555-10.783,2.343-3.262-1.159-4.771-2.76-5.715-6.375-.208,5.947,1.4,7.758,5.158,8.963C60.033,445.153,66.421,445.244,67.043,438.831Z" transform="translate(27 133)" fill="#e6a278" fill-rule="evenodd"/>
    <path id="Path_479" data-name="Path 479" d="M51.311,439.745c-.943,4.983-1.643,5.354-6.059,7.792l3.215.791c2.763-2.017,3.793-3.705,4.007-7.123Z" transform="translate(27 133)" fill="#e6a278" fill-rule="evenodd"/>
    <path id="Path_480" data-name="Path 480" d="M57.112,422.034c-1.319,3.7-4.7,9.168-8.974,11.09-4.16,1.87-9.876-.088-9.38-8.122-2.2,8.686,2.379,14.212,11.922,10.438C51.354,433.367,55.683,428.179,57.112,422.034Z" transform="translate(27 133)" fill="#e6a278" fill-rule="evenodd"/>
    <path id="Path_481" data-name="Path 481" d="M62.7,449.433a30.69,30.69,0,0,0-2.22-2.818,10.08,10.08,0,0,0-1.758-1.173c-1.03-.6-1.791-.951-2.385-.693-1.058.462-1.073,1.771-1.139,2.732-1.292-.345-2.076-.544-2.493-.121a5.338,5.338,0,0,0-.663,2.444,4.415,4.415,0,0,0,.075,2.448c-.34,1.454-.67,1.9.443,2.93-.077.768.525,1.343,1.463,1.785,1.092.515,3.48,1.575,4.761,2.122a14.176,14.176,0,0,0,3.626,1.244,14.209,14.209,0,0,0,2.753-.159,16.856,16.856,0,0,1,3.028.073c3.625.353,7.038.771,10.572.945,11.451.565,15.775.1,16.625-12.264-5.656-1.537-8.052-.949-10.954-.848-2.375.08-4.153,1.753-6.95,2.689-5.087,1.7-9.97,2.538-13.2,1.016C63.442,451.388,63.43,450.575,62.7,449.433Z" transform="translate(27 133)" fill="#e6a278" fill-rule="evenodd"/>
    <path id="Path_482" data-name="Path 482" d="M67.066,439.5H82.3l1.188,3.909c.17,4.8-.284,6.863-1.188,11.576H67.066Z" transform="translate(27 133)" fill="#e6a278" fill-rule="evenodd"/>
    <path id="Path_483" data-name="Path 483" d="M75.029,411.153c4.944,1.634,5.818,1.491,9.795,4.868l1.543,1.722c6.246-.587,9.972,4.324,9.5,11.873,5.965,12.045,4.145,12.711,3.22,21.612-.314,3.014.438,3.843-1.94,5.766a21.923,21.923,0,0,1-6.133,3.475c-4.963,1.685-12.486,1.76-18.575,1.266a33,33,0,0,0-4.175.163c-1.655-.054-3.9-1.059-6.271-2.229a37.16,37.16,0,0,1-5.724-3.277l.832-2.97,3.681-2.492c14.571,5.625,15.151-1.084,26.359-3.206-3.416-1.449-4.677-2.424-5.1-6.293l-15,3.8V411.264Z" transform="translate(27 133)" fill="#e6a278" fill-rule="evenodd"/>
    <path id="Path_484" data-name="Path 484" d="M75.029,411.153c4.944,1.634,5.818,1.491,9.795,4.868l1.543,1.722c6.246-.587,9.972,4.324,9.5,11.873,5.965,12.045,4.145,12.711,3.22,21.612-.314,3.014.438,3.843-1.94,5.766a21.923,21.923,0,0,1-6.133,3.475c-4.963,1.685-12.486,1.76-18.575,1.266a33,33,0,0,0-4.175.163c-1.655-.054-3.9-1.059-6.271-2.229a37.16,37.16,0,0,1-5.724-3.277l.147-.523a73.716,73.716,0,0,0,9.231,4.062c1.1.394,2.1,1.2,3.265,1.286,1.278.09,2.484-.683,3.76-.792,2-.169,3.275.23,5.842.061,7.054-.468,16.438-3.368,16.866-9.9.508,6.709-2.47,6.819-8.163,10.141,9.2-2.4,9.021-2.517,10.975-11.255,1.987-8.882-.017-8.822-2.667-18.747-.583-2.18-.828-4.755-1.922-7.029-1.2-2.5-3.1-4.472-5.99-4.419-.906.017-1.731.631-2.275,2.12a2.419,2.419,0,0,1,.347-2.968c-4.15-5.279-7.707-5.073-11.479-6.382L67.034,413.8v-2.529Z" transform="translate(27 133)" fill="#d9966c" fill-rule="evenodd"/>
    <path id="Path_485" data-name="Path 485" d="M95.811,449.12a32.119,32.119,0,0,0-8.795-.216c-3.348.913-4.685,1.851-7.419,3.728-1.425.978-.215,3.154-2.347,5.143-1.793,1.676-8.672,3.855-11.172,2.872l-8.987-7.19.009-.035,3.5-1.276c14.571,5.625,12.842-2.359,24.048-4.482A18.592,18.592,0,0,1,95.811,449.12Z" transform="translate(27 133)" fill="#d9966c" fill-rule="evenodd"/>
    <path id="Path_486" data-name="Path 486" d="M74.257,410.411l.444-.806a72.809,72.809,0,0,1-.445,9.359c-.625,3.467-2.416,5.458-7.224,8.508V414.347Z" transform="translate(27 133)" fill="#d9966c" fill-rule="evenodd"/>
    <path id="Path_487" data-name="Path 487" d="M75.379,403.533c.4-.507.546-.4.766-.344.486.131.33.784.284,1.521-.025.428.192.883.167,1.623-.043,1.275-.692,1.888-1.352,3a.662.662,0,0,1-.839.2l.562-5.437Z" transform="translate(27 133)" fill="#e6a278" fill-rule="evenodd"/>
    <path id="Path_488" data-name="Path 488" d="M58.513,403.652c-.4-.508-.545-.4-.765-.345-.486.132-.33.784-.284,1.521.025.429-.192.884-.167,1.623.043,1.275.692,1.888,1.352,3a.662.662,0,0,0,.839.2l-.561-5.437Z" transform="translate(27 133)" fill="#eab088" fill-rule="evenodd"/>
    <path id="Path_489" data-name="Path 489" d="M67.161,419.194h-.106a6.2,6.2,0,0,1-2.678-.333c-.686-.3-1.01-.981-1.942-1.9-.788-.777-2.2-1.564-2.531-2.4-.447-1.137-.233-2.375-.483-4.107-.2-1.364-.82-2.569-.857-3.915-.041-1.441.237-2.874.23-4.473-.012-3.092-.035-5.058,1.836-6.6h0a8.1,8.1,0,0,1,1.723-1.071l.021-.01.123-.056.07-.032c.034-.013.066-.027.1-.041l.1-.041.1-.041.093-.037.134-.05.065-.023c.066-.023.132-.047.2-.069h0c3.327-1.115,7.529-.625,10.076,1.472,1.872,1.541,1.849,3.505,1.835,6.6-.007,1.6.272,3.033.231,4.473-.039,1.345-.659,2.551-.857,3.916-.25,1.731-.035,2.969-.483,4.105-.33.836-1.745,1.624-2.531,2.4-.932.92-1.256,1.6-1.941,1.9A5.841,5.841,0,0,1,67.161,419.194Z" transform="translate(27 133)" fill="#eab088" fill-rule="evenodd"/>
    <path id="Path_490" data-name="Path 490" d="M67.161,419.194h-.128v-25.78a10.189,10.189,0,0,1,6.4,2.052c1.872,1.541,1.849,3.5,1.835,6.6-.007,1.6.272,3.033.231,4.473-.039,1.345-.659,2.551-.857,3.916-.25,1.731-.035,2.969-.483,4.1-.33.836-1.745,1.624-2.531,2.4-.932.92-1.256,1.6-1.941,1.9A5.866,5.866,0,0,1,67.161,419.194Z" transform="translate(27 133)" fill="#e6a278" fill-rule="evenodd"/>
    <path id="Path_491" data-name="Path 491" d="M65.07,402.4a1.117,1.117,0,0,0-.377-.472l.055.164a1.848,1.848,0,0,0-.792-.427,3.6,3.6,0,0,1,.435.4,7.175,7.175,0,0,0-.77-.556,4.178,4.178,0,0,0-2.554-.446,3.389,3.389,0,0,0-.913.159,2.848,2.848,0,0,1,.335-.005,1.666,1.666,0,0,0-1.152,1.072,1.77,1.77,0,0,1,1.576-.546c.485.066.8.331,1.625.551l-.292-.2c.419.19.8.422,1.208.628.63.318.646.077.95.32a.564.564,0,0,0,.453.152C65.15,403.082,65.231,402.814,65.07,402.4Z" transform="translate(27 133)" fill="#120d0a" fill-rule="evenodd"/>
    <path id="Path_492" data-name="Path 492" d="M68.544,402.407a1.13,1.13,0,0,1,.375-.471l-.055.164a1.868,1.868,0,0,1,.792-.428,3.815,3.815,0,0,0-.436.4,7.151,7.151,0,0,1,.77-.554,4.162,4.162,0,0,1,2.549-.445,3.367,3.367,0,0,1,.911.158,2.882,2.882,0,0,0-.337-.005,1.666,1.666,0,0,1,1.151,1.07,1.765,1.765,0,0,0-1.572-.544c-.485.066-.8.331-1.623.549l.293-.193c-.418.19-.8.421-1.205.627-.629.317-.646.077-.949.318a.555.555,0,0,1-.451.152C68.464,403.082,68.383,402.815,68.544,402.407Z" transform="translate(27 133)" fill="#120d0a" fill-rule="evenodd"/>
    <path id="Path_493" data-name="Path 493" d="M69.873,396.967c-1.887-.157-3.093-.766-5,.069-1.535-.219-3.325-.5-3.882.118a2.345,2.345,0,0,0-.286,2.452l-.695-.695a11.465,11.465,0,0,0-.417,3.821l-.833-.625c.085,2.861.4,3.542.521,6.251-1.264-2.146-.667-4.718-2.014-5.661a16.7,16.7,0,0,1,.381-6.929l-.833.435a10.5,10.5,0,0,1,.748-1.425,2.1,2.1,0,0,0-1.233.8c.885-1.676,2.442-2.375,3.647-4.046a2.282,2.282,0,0,0-1.493.5c.851-1.807,1.869-2.107,3.351-2.691a2.872,2.872,0,0,1-.539-1.407c1.143,1.14,3.077.869,4.2.677-.49-.444-.914-.729-.763-1.614.369.8.867.88,1.563,1.076l-.47-.747a16.008,16.008,0,0,0,3.874,1.72c.963.411,4.346,2.308,4.584.729.306.743.167,1.1-.347,1.354a7.213,7.213,0,0,0,1.6-.1l-.843.373c2.2,1.225,1.852,2.114,2.224,4.655a6.574,6.574,0,0,0-.973-2.328c.335,1.1.871,2.461,1.007,3.3a11,11,0,0,1-.347,3.231c-.042.456.252.906.174,1.354a30.037,30.037,0,0,0-.418,3.369,14.9,14.9,0,0,1-.277-2.154,29.66,29.66,0,0,1-1.284,6.3,27.7,27.7,0,0,0,.042-3.917,40.466,40.466,0,0,0-.2-4.741c-.412-3.295-1.514-4-2.425-3.932C71.377,396.614,70.378,397.01,69.873,396.967Z" transform="translate(27 133)" fill="#30190f" fill-rule="evenodd"/>
    <path id="Path_494" data-name="Path 494" d="M67.043,438.831c2.305,4.4,7.616,2.844,11.177,1.319,3.021-1.292,4.437-1.958,5.322-5.352.206,5.947-1.6,6.966-5.356,8.173C73.856,444.36,67.666,445.244,67.043,438.831Z" transform="translate(27 133)" fill="#d9966c" fill-rule="evenodd"/>
    <path id="Path_495" data-name="Path 495" d="M82.775,439.745c.942,4.983,1.277,5.78,5.695,8.217l-3.764.731c-2.337-1.652-2.881-4.07-3.094-7.488Z" transform="translate(27 133)" fill="#d9966c" fill-rule="evenodd"/>
    <path id="Path_496" data-name="Path 496" d="M76.974,422.034c1.318,3.7,4.7,9.168,8.973,11.09,4.162,1.87,9.877-.088,9.382-8.122,2.2,8.686-2.381,14.212-11.923,10.438C82.733,433.367,78.405,428.179,76.974,422.034Z" transform="translate(27 133)" fill="#d9966c" fill-rule="evenodd"/>
    <path id="Path_497" data-name="Path 497" d="M67.4,449.934a31.859,31.859,0,0,1,2.408-2.661,10.136,10.136,0,0,1,1.835-1.047c1.068-.523,1.852-.828,2.427-.528,1.024.533.949,1.84.949,2.8,1.313-.254,2.108-.4,2.5.052a5.345,5.345,0,0,1,.493,2.484,4.418,4.418,0,0,1-.244,2.437c.241,1.473.54,1.94-.644,2.894.025.771-.614,1.3-1.581,1.679-1.125.439-3.581,1.334-4.9,1.791a14.174,14.174,0,0,1-3.7.993,14.287,14.287,0,0,1-2.736-.349,16.656,16.656,0,0,0-3.027-.133c-3.641.1-7.074.285-10.611.217-6.658-.128-7.535-1.2-10.937-1.639-1.811-.235-2.118-.054-2.537-.388a3.647,3.647,0,0,1-.926-2.047c-.29-1.253-.493-2.425-.817-3.7a18.569,18.569,0,0,1-.528-5.6c5.451-.375,7.7-1.7,10.588-1.4a26.524,26.524,0,0,1,7.366,2.165c4.958,2.048,9.553,5.518,12.881,4.223C66.533,451.833,66.6,451.024,67.4,449.934Z" transform="translate(27 133)" fill="#eab088" fill-rule="evenodd"/>
    <path id="Path_498" data-name="Path 498" d="M67.4,449.934a31.859,31.859,0,0,1,2.408-2.661c-2.444,3.219-1.956,4.718-4.062,5.587-7.428,3.061-13.423-6.8-25.454-6.459a16.163,16.163,0,0,1,5.119-.614,26.524,26.524,0,0,1,7.366,2.165c4.958,2.048,9.553,5.518,12.881,4.223C66.533,451.833,66.6,451.024,67.4,449.934Z" transform="translate(27 133)" fill="#e6a278" fill-rule="evenodd"/>
    <path id="Path_499" data-name="Path 499" d="M75.021,448.024c0,.181,0,.358,0,.525,1.313-.256,2.108-.4,2.5.051a5.341,5.341,0,0,1,.493,2.484,4.413,4.413,0,0,1-.244,2.436c.241,1.474.54,1.941-.644,2.9.025.771-.614,1.3-1.581,1.679-1.125.439-3.581,1.334-4.9,1.789a14.024,14.024,0,0,1-3.7.994,14.11,14.11,0,0,1-2.736-.348,16.643,16.643,0,0,0-3.027-.135c-3.641.1-7.074.287-10.611.219-6.658-.13-7.535-1.2-10.937-1.641-1.811-.233-2.118-.054-2.537-.385a3.662,3.662,0,0,1-.926-2.049c-.29-1.252-.493-2.424-.817-3.7a18.583,18.583,0,0,1-.528-5.6c.362-.026.215-.178.552-.21.539,3.18,1.139,8.618,2.865,10.019.693.561,4.432,1.231,5.813,1.509-4.688-2.125-7.007-4.575-5.813-9.858.375,1.423.234,2.776.824,3.768,1.837,3.086,4.633,4.3,8.1,4.981a62.827,62.827,0,0,0,12.648.978c3.6,0,5.127.989,6.728,1.027a44.757,44.757,0,0,0,6.042-1.28c1.636-.429,4.431-1.279,3.753-1.333l-.777-.063a3.326,3.326,0,0,0,1.75-1.284c.25-.474.142-1.279-.218-1.409a10.987,10.987,0,0,1-2.016.876,5.636,5.636,0,0,0,2.4-2.432A6.853,6.853,0,0,0,77.3,449.8c-.224-1.287-.722-.8-1.778-.8-1.549.008-2.749-.038-3.908,1.005C72.824,448.189,73.16,448.463,75.021,448.024Z" transform="translate(27 133)" fill="#e6a278" fill-rule="evenodd"/>
    <path id="Path_500" data-name="Path 500" d="M62.591,449.263a8.947,8.947,0,0,0-1.823-2.394,7.793,7.793,0,0,0-1.989-1.372,4.479,4.479,0,0,0-2.266-.828,1.279,1.279,0,0,0-.9.6,3.945,3.945,0,0,0-.4,2.145c-1.292-.343-2.076-.542-2.493-.119a1.393,1.393,0,0,0-.286.517l8.17,3.716-7.486-3.688c.312-.663.672-.07,1.567-.005,1.543.115,2.744.152,3.829,1.272-.948-1.658-1.338-1.679-2.64-2.034a1.606,1.606,0,0,1,.263-1.813c.05-.064.734-.467,2.014.454C59.86,446.94,60.726,446.829,62.591,449.263Z" transform="translate(27 133)" fill="#d9966c" fill-rule="evenodd"/>
  </g>
</svg>
