<svg xmlns="http://www.w3.org/2000/svg" width="66.088" height="75.001" viewBox="0 0 66.088 75.001">
  <g id="Group_18" data-name="Group 18" transform="translate(-181 -678)">
    <path id="Path_357" data-name="Path 357" d="M187.61,597.5H171.828l-1.23,3.909c-.176,4.8.293,6.863,1.23,11.576H187.61Z" transform="translate(27 133)" fill="#eab088" fill-rule="evenodd"/>
    <path id="Path_358" data-name="Path 358" d="M179.058,569.153c-4.945,1.634-5.818,1.491-9.795,4.868l-1.544,1.722c-6.245-.587-9.97,4.324-9.5,11.873-5.965,12.045-4.144,12.711-3.219,21.612.313,3.014,1.688,4.338,1.94,5.766l10.005-9.271c3.416-1.449,4.676-2.424,5.1-6.293l15,3.8v-33.97Z" transform="translate(27 133)" fill="#eab088" fill-rule="evenodd"/>
    <path id="Path_359" data-name="Path 359" d="M179.058,569.153c-4.945,1.634-5.818,1.491-9.795,4.868l-1.544,1.722c-6.245-.587-9.97,4.324-9.5,11.873-5.965,12.045-4.144,12.711-3.219,21.612.313,3.014,1.292,3.794,1.94,5.766l.844-.789a32.848,32.848,0,0,1-1.89-6.739c-1.986-8.882.016-8.822,2.668-18.747.583-2.18.828-4.755,1.92-7.029,1.2-2.5,3.1-4.472,5.992-4.419.9.017,1.73.631,2.275,2.12a2.422,2.422,0,0,0-.346-2.968c4.148-5.279,7.706-5.073,11.477-6.382l7.172,1.753v-2.529Z" transform="translate(27 133)" fill="#e6a278" fill-rule="evenodd"/>
    <path id="Path_360" data-name="Path 360" d="M179.83,568.411l-.446-.806a72.926,72.926,0,0,0,.447,9.359c.625,3.467,2.415,5.458,7.224,8.508V572.347Z" transform="translate(27 133)" fill="#e6a278" fill-rule="evenodd"/>
    <path id="Path_361" data-name="Path 361" d="M187.043,596.831c-2.179,4.155-7.372,3.555-10.783,2.343-3.262-1.159-4.771-2.76-5.715-6.375-.208,5.947,1.4,7.758,5.158,8.963C180.033,603.153,186.421,603.244,187.043,596.831Z" transform="translate(27 133)" fill="#e6a278" fill-rule="evenodd"/>
    <path id="Path_362" data-name="Path 362" d="M171.311,597.745c-.943,4.983-1.643,5.354-6.059,7.792l3.215.791c2.763-2.017,3.793-3.705,4.007-7.123Z" transform="translate(27 133)" fill="#e6a278" fill-rule="evenodd"/>
    <path id="Path_363" data-name="Path 363" d="M177.112,580.034c-1.319,3.7-4.7,9.168-8.974,11.09-4.16,1.87-9.876-.088-9.38-8.122-2.2,8.686,2.379,14.212,11.922,10.438C171.354,591.367,175.683,586.179,177.112,580.034Z" transform="translate(27 133)" fill="#e6a278" fill-rule="evenodd"/>
    <path id="Path_364" data-name="Path 364" d="M182.7,607.433a30.687,30.687,0,0,0-2.22-2.818,10.076,10.076,0,0,0-1.758-1.173c-1.03-.6-1.791-.951-2.385-.693-1.058.462-1.073,1.771-1.139,2.732-1.292-.345-2.076-.544-2.493-.121a5.338,5.338,0,0,0-.663,2.444,4.415,4.415,0,0,0,.075,2.448c-.34,1.454-.67,1.9.443,2.93-.077.768.525,1.343,1.463,1.785,1.092.515,3.48,1.575,4.761,2.122a14.176,14.176,0,0,0,3.626,1.244,14.207,14.207,0,0,0,2.753-.159,16.853,16.853,0,0,1,3.028.073c3.625.353,7.038.771,10.572.945,11.451.565,15.775.1,16.625-12.264-5.656-1.537-8.052-.949-10.954-.848-2.375.08-4.153,1.753-6.95,2.689-5.087,1.7-9.97,2.538-13.2,1.016C183.442,609.388,183.43,608.575,182.7,607.433Z" transform="translate(27 133)" fill="#e6a278" fill-rule="evenodd"/>
    <path id="Path_365" data-name="Path 365" d="M187.066,597.5H202.3l1.188,3.909c.17,4.8-.284,6.863-1.188,11.576H187.066Z" transform="translate(27 133)" fill="#e6a278" fill-rule="evenodd"/>
    <path id="Path_366" data-name="Path 366" d="M195.029,569.153c4.944,1.634,5.818,1.491,9.795,4.868l1.543,1.722c6.246-.587,9.972,4.324,9.5,11.873,5.965,12.045,4.145,12.711,3.22,21.612-.314,3.014.438,3.843-1.94,5.766a21.922,21.922,0,0,1-6.133,3.475c-4.963,1.685-12.486,1.76-18.575,1.266a33.007,33.007,0,0,0-4.175.163c-1.655-.054-3.9-1.059-6.271-2.229a37.162,37.162,0,0,1-5.724-3.277l.832-2.97,3.681-2.492c14.571,5.625,15.151-1.084,26.359-3.206-3.416-1.449-4.677-2.424-5.1-6.293l-15,3.8V569.264Z" transform="translate(27 133)" fill="#e6a278" fill-rule="evenodd"/>
    <path id="Path_367" data-name="Path 367" d="M195.029,569.153c4.944,1.634,5.818,1.491,9.795,4.868l1.543,1.722c6.246-.587,9.972,4.324,9.5,11.873,5.965,12.045,4.145,12.711,3.22,21.612-.314,3.014.438,3.843-1.94,5.766a21.922,21.922,0,0,1-6.133,3.475c-4.963,1.685-12.486,1.76-18.575,1.266a33.007,33.007,0,0,0-4.175.163c-1.655-.054-3.9-1.059-6.271-2.229a37.162,37.162,0,0,1-5.724-3.277l.147-.523a73.723,73.723,0,0,0,9.231,4.062c1.1.394,2.1,1.2,3.265,1.286,1.278.09,2.484-.683,3.76-.792,2-.169,3.275.23,5.842.061,7.054-.468,16.438-3.368,16.866-9.9.508,6.709-2.47,6.819-8.163,10.141,9.2-2.4,9.021-2.517,10.975-11.255,1.987-8.882-.017-8.822-2.667-18.747-.583-2.18-.828-4.755-1.922-7.029-1.2-2.5-3.1-4.472-5.99-4.419-.906.017-1.731.631-2.275,2.12a2.419,2.419,0,0,1,.347-2.968c-4.15-5.279-7.707-5.073-11.479-6.382l-7.171,1.753v-2.529Z" transform="translate(27 133)" fill="#d9966c" fill-rule="evenodd"/>
    <path id="Path_368" data-name="Path 368" d="M194.257,568.411l.444-.806a72.811,72.811,0,0,1-.445,9.359c-.625,3.467-2.416,5.458-7.224,8.508V572.347Z" transform="translate(27 133)" fill="#d9966c" fill-rule="evenodd"/>
    <path id="Path_369" data-name="Path 369" d="M195.379,561.533c.4-.507.546-.4.766-.344.486.131.33.784.284,1.521-.025.428.192.883.167,1.623-.043,1.275-.692,1.888-1.352,3a.662.662,0,0,1-.839.2l.562-5.437Z" transform="translate(27 133)" fill="#e6a278" fill-rule="evenodd"/>
    <path id="Path_370" data-name="Path 370" d="M178.513,561.652c-.4-.508-.545-.4-.765-.345-.486.132-.33.784-.284,1.521.025.429-.192.884-.167,1.623.043,1.275.692,1.888,1.352,3a.662.662,0,0,0,.839.2l-.561-5.437Z" transform="translate(27 133)" fill="#eab088" fill-rule="evenodd"/>
    <path id="Path_371" data-name="Path 371" d="M187.161,577.194h-.106a6.2,6.2,0,0,1-2.678-.333c-.686-.3-1.01-.981-1.942-1.9-.788-.777-2.2-1.564-2.531-2.4-.447-1.137-.233-2.375-.483-4.107-.2-1.364-.82-2.569-.857-3.915-.041-1.441.237-2.874.23-4.473-.012-3.092-.035-5.058,1.836-6.6h0a8.1,8.1,0,0,1,1.723-1.071l.021-.01.123-.056.07-.032c.034-.013.066-.027.1-.041l.1-.041.105-.041.093-.037.134-.05.065-.023c.066-.023.132-.047.2-.069h0c3.327-1.115,7.529-.625,10.076,1.472,1.872,1.541,1.849,3.505,1.835,6.6-.007,1.6.272,3.033.231,4.473-.039,1.345-.659,2.551-.857,3.916-.25,1.731-.035,2.969-.483,4.1-.33.836-1.745,1.624-2.531,2.4-.932.92-1.256,1.6-1.941,1.9A5.841,5.841,0,0,1,187.161,577.194Z" transform="translate(27 133)" fill="#eab088" fill-rule="evenodd"/>
    <path id="Path_372" data-name="Path 372" d="M187.161,577.194h-.128v-25.78a10.19,10.19,0,0,1,6.4,2.052c1.872,1.541,1.849,3.505,1.835,6.6-.007,1.6.272,3.033.231,4.473-.039,1.345-.659,2.551-.857,3.916-.25,1.731-.035,2.969-.483,4.105-.33.836-1.745,1.624-2.531,2.4-.932.92-1.256,1.6-1.941,1.9A5.867,5.867,0,0,1,187.161,577.194Z" transform="translate(27 133)" fill="#e6a278" fill-rule="evenodd"/>
    <path id="Path_373" data-name="Path 373" d="M185.07,560.405a1.118,1.118,0,0,0-.377-.472l.055.164a1.849,1.849,0,0,0-.792-.427,3.6,3.6,0,0,1,.435.4,7.185,7.185,0,0,0-.77-.556,4.178,4.178,0,0,0-2.554-.446,3.386,3.386,0,0,0-.913.159,2.834,2.834,0,0,1,.335-.005,1.666,1.666,0,0,0-1.152,1.072,1.77,1.77,0,0,1,1.576-.546c.485.066.8.331,1.625.551l-.292-.2c.419.19.8.422,1.208.628.63.318.646.077.95.32a.563.563,0,0,0,.453.152C185.15,561.082,185.231,560.814,185.07,560.405Z" transform="translate(27 133)" fill="#120d0a" fill-rule="evenodd"/>
    <path id="Path_374" data-name="Path 374" d="M188.544,560.407a1.131,1.131,0,0,1,.375-.471l-.055.164a1.868,1.868,0,0,1,.792-.428,3.811,3.811,0,0,0-.436.4,7.155,7.155,0,0,1,.77-.554,4.163,4.163,0,0,1,2.549-.445,3.37,3.37,0,0,1,.911.158,2.882,2.882,0,0,0-.337-.005,1.666,1.666,0,0,1,1.151,1.07,1.765,1.765,0,0,0-1.572-.544c-.485.066-.8.331-1.623.549l.293-.193c-.418.19-.8.421-1.205.627-.629.317-.646.077-.949.318a.555.555,0,0,1-.451.152C188.464,561.082,188.383,560.815,188.544,560.407Z" transform="translate(27 133)" fill="#120d0a" fill-rule="evenodd"/>
    <path id="Path_375" data-name="Path 375" d="M189.873,554.967c-1.887-.157-3.093-.766-5,.069-1.535-.219-3.325-.5-3.882.118a2.345,2.345,0,0,0-.286,2.452l-.7-.7a11.465,11.465,0,0,0-.417,3.821l-.833-.625c.085,2.861.4,3.542.521,6.251-1.264-2.146-.667-4.718-2.014-5.661a16.7,16.7,0,0,1,.381-6.929l-.833.435a10.5,10.5,0,0,1,.748-1.425,2.1,2.1,0,0,0-1.233.8c.885-1.676,2.442-2.375,3.647-4.046a2.282,2.282,0,0,0-1.493.5c.851-1.807,1.869-2.107,3.351-2.691a2.872,2.872,0,0,1-.539-1.407c1.143,1.14,3.077.869,4.2.677-.49-.444-.914-.729-.763-1.614.369.8.867.88,1.563,1.076l-.47-.747a16.009,16.009,0,0,0,3.874,1.72c.963.411,4.346,2.308,4.584.729.306.743.167,1.1-.347,1.354a7.213,7.213,0,0,0,1.605-.1l-.843.373c2.2,1.225,1.852,2.114,2.224,4.655a6.574,6.574,0,0,0-.973-2.328c.335,1.1.871,2.461,1.007,3.3a11,11,0,0,1-.347,3.231c-.042.456.252.906.174,1.354a30.04,30.04,0,0,0-.418,3.369,14.9,14.9,0,0,1-.277-2.154,29.659,29.659,0,0,1-1.284,6.3,27.7,27.7,0,0,0,.042-3.917,40.466,40.466,0,0,0-.2-4.741c-.412-3.3-1.514-4-2.425-3.932C191.377,554.614,190.378,555.01,189.873,554.967Z" transform="translate(27 133)" fill="#30190f" fill-rule="evenodd"/>
    <path id="Path_376" data-name="Path 376" d="M187.043,596.831c2.305,4.4,7.616,2.844,11.177,1.319,3.021-1.292,4.437-1.958,5.322-5.352.206,5.947-1.6,6.966-5.356,8.173C193.856,602.36,187.666,603.244,187.043,596.831Z" transform="translate(27 133)" fill="#d9966c" fill-rule="evenodd"/>
    <path id="Path_377" data-name="Path 377" d="M202.775,597.745c.942,4.983,1.277,5.78,5.7,8.217l-3.764.731c-2.337-1.652-2.881-4.07-3.094-7.488Z" transform="translate(27 133)" fill="#d9966c" fill-rule="evenodd"/>
    <path id="Path_378" data-name="Path 378" d="M196.974,580.034c1.318,3.7,4.7,9.168,8.973,11.09,4.162,1.87,9.877-.088,9.382-8.122,2.2,8.686-2.381,14.212-11.923,10.438C202.733,591.367,198.4,586.179,196.974,580.034Z" transform="translate(27 133)" fill="#d9966c" fill-rule="evenodd"/>
    <path id="Path_379" data-name="Path 379" d="M187.4,607.934a31.857,31.857,0,0,1,2.408-2.661,10.133,10.133,0,0,1,1.835-1.047c1.068-.523,1.852-.828,2.427-.528,1.024.533.949,1.84.949,2.8,1.313-.254,2.108-.4,2.5.052a5.344,5.344,0,0,1,.493,2.484,4.418,4.418,0,0,1-.244,2.437c.241,1.473.54,1.94-.644,2.894.025.771-.614,1.3-1.581,1.679-1.125.439-3.581,1.334-4.9,1.791a14.174,14.174,0,0,1-3.7.993,14.292,14.292,0,0,1-2.736-.349,16.65,16.65,0,0,0-3.027-.133c-3.641.1-7.074.285-10.611.217-6.658-.128-7.535-1.2-10.937-1.639-1.811-.235-2.118-.054-2.537-.388a3.647,3.647,0,0,1-.926-2.047c-.29-1.253-.493-2.425-.817-3.7a18.57,18.57,0,0,1-.528-5.6c5.451-.375,7.7-1.7,10.588-1.4a26.524,26.524,0,0,1,7.366,2.165c4.958,2.048,9.553,5.518,12.881,4.223C186.533,609.833,186.6,609.024,187.4,607.934Z" transform="translate(27 133)" fill="#eab088" fill-rule="evenodd"/>
    <path id="Path_380" data-name="Path 380" d="M187.4,607.934a31.857,31.857,0,0,1,2.408-2.661c-2.444,3.219-1.956,4.718-4.062,5.587-7.428,3.061-13.423-6.8-25.454-6.459a16.163,16.163,0,0,1,5.119-.614,26.524,26.524,0,0,1,7.366,2.165c4.958,2.048,9.553,5.518,12.881,4.223C186.533,609.833,186.6,609.024,187.4,607.934Z" transform="translate(27 133)" fill="#e6a278" fill-rule="evenodd"/>
    <path id="Path_381" data-name="Path 381" d="M182.591,607.263a8.946,8.946,0,0,0-1.823-2.394,7.794,7.794,0,0,0-1.989-1.372,4.479,4.479,0,0,0-2.266-.828,1.278,1.278,0,0,0-.9.6,3.944,3.944,0,0,0-.4,2.145c-1.292-.343-2.076-.542-2.493-.119a1.393,1.393,0,0,0-.286.517l8.17,3.716-7.486-3.688c.312-.663.672-.07,1.567-.005,1.543.115,2.744.152,3.829,1.272-.948-1.658-1.338-1.679-2.64-2.034a1.605,1.605,0,0,1,.263-1.813c.05-.064.734-.467,2.014.454C179.86,604.94,180.726,604.829,182.591,607.263Z" transform="translate(27 133)" fill="#d9966c" fill-rule="evenodd"/>
  </g>
</svg>
