<svg xmlns="http://www.w3.org/2000/svg" width="100.003" height="75.001" viewBox="0 0 100.003 75.001">
  <g id="Group_16" data-name="Group 16" transform="translate(-285 -520)">
    <path id="Path_418" data-name="Path 418" d="M291.14,417.319c-7.917-.876-13.4-1.693-16.766,7.618-9.762,3.961-8.811,5.819-14.979,14.433-2.139,2.961-1.688,3.337.47,5.53,3.272,3.328,3.6,4.641,5.137,6.036,2.724,2.47,7.5,4.1,11.735,5.7,3.01,1.142,3.145,1.087,5.449,3.159a4.607,4.607,0,0,0,2.275,1.3c2.679.351,5.592-2.071,6.313-1.448-.367.29-2.109,1.777-.872,2.118a7.31,7.31,0,0,0,2.96-.663c.485-.165,1.065-.347,1.612-.552.029.121.06.984.09,1.447h13.459l1.618-21.144L308,411.005l-6.433-1.454a30.05,30.05,0,0,1-.4,3.168A44.88,44.88,0,0,0,291.14,417.319Zm2.311,36.515c-.2-.45-.417-.922-.654-1.4a1.554,1.554,0,0,0-1.975-.953c-2.191.545-2.825,2.049-6.116,3.25-4.688-3.8-7.219-9.525-11.043-12.3a16.262,16.262,0,0,0,10.224-7.995c2.469,7.313,3.346,8.376,9.3,15.429C293.319,451.041,293.346,452.312,293.451,453.834Z" transform="translate(27 133)" fill="#eab088" fill-rule="evenodd"/>
    <path id="Path_419" data-name="Path 419" d="M294.475,460.554c.03.123.064,1,.1,1.447h1.236c-.429-3.533-.762-9.157-.971-10.414a7.913,7.913,0,0,1,.6-5.23l-1.858,1.2c-5.923-5.923-5.9-7.813-9.184-15.307l-.453,2.357c2.425,7.155,3.334,8.258,9.236,15.254.136,1.178.163,2.448.268,3.971C293.641,454.78,295.36,458.814,294.475,460.554Z" transform="translate(27 133)" fill="#e6a278" fill-rule="evenodd"/>
    <path id="Path_420" data-name="Path 420" d="M291.14,417.319c-7.917-.876-13.4-1.693-16.766,7.618-9.762,3.961-8.811,5.819-14.979,14.433-2.139,2.961-1.688,3.337.47,5.53,3.272,3.328,3.6,4.641,5.137,6.036,2.724,2.47,7.5,4.1,11.735,5.7,3.01,1.142,3.145,1.087,5.449,3.159a4.607,4.607,0,0,0,2.275,1.3c2.679.351,5.592-2.071,6.313-1.448a4.2,4.2,0,0,0-1.286,1.516,7.511,7.511,0,0,0,2.668-1.7c1-1.165-1.581-.96-2.391-.688-2.791.935-4.042,1.364-4.94,1.229-1.228-.185-1.792-1.425-4.715-3.868a14.389,14.389,0,0,0-2.391-1.593c-6.944-3.792-9.845-3.855-16.517-10.438-1.587-1.566-1.877-2.418-.245-4.774,3.556-5.128,8.541-13.079,14.879-12.486.429-4.942,2.938-7.183,6.251-8.124,2.835-.8,6.708-.2,10.747-.387,1.635-.837,8.4-3.757,9.083-5.182a5.307,5.307,0,0,0,.267-3.462l-.615-.139a30.05,30.05,0,0,1-.4,3.168A44.782,44.782,0,0,0,291.14,417.319ZM299.481,462h-1.915a62.307,62.307,0,0,1,.955-6.349c-1.587-4.039-1.287-4.572-1.53-8.964,1.784,7.139,2.015,8.836,9.4,7.872-2.719,1.438-3.346,1.16-6.45,1.53C299.786,457.96,299.613,460.57,299.481,462Zm7.528-39.6c.049,6.246-.348,8.922-2.569,10.454a16.713,16.713,0,0,1-12.247,2.428,12.091,12.091,0,0,1-6.025-2.859c-.637,1.288-1.2,2.393-1.787,3.45q-.237-.676-.494-1.437a16.259,16.259,0,0,1-10.224,7.995c3.824,2.775,6.355,8.5,11.043,12.3,3.292-1.2,3.925-2.705,6.116-3.25a1.841,1.841,0,0,1,1-.006c-2.818.958-4.733,3.758-7.077,3.883-1.617.087-10-8.886-11.261-10.491-1.957-2.5-3.289-6.048-6.668-8.4,3.682.884,4.659,2.354,6.122,4.481,2.3-1.171,9.784-4.577,10.536-9.966.14-1.006-2.268-1.62-5.616-2.99,2.593.165,4.468.448,6.214-.361,1.681-.779,3.243-2.786,5.212-4.229-3.995,4.685-4.376,8.438,2.776,10.039a15.442,15.442,0,0,0,11.844-2.1C306.223,429.66,305.941,427.094,307.009,422.4Zm-18.583,21.616a29.759,29.759,0,0,1,1.241-7.822,93.211,93.211,0,0,0,.282,9.788C289.375,445.271,288.874,444.627,288.426,444.014Z" transform="translate(27 133)" fill="#e6a278" fill-rule="evenodd"/>
    <path id="Path_421" data-name="Path 421" d="M301.453,409.3a34.59,34.59,0,0,1-.548,5.7c.325,3.2,4.524,4.371,7.1,5.54V410.493l-.242-.7Z" transform="translate(27 133)" fill="#e6a278" fill-rule="evenodd"/>
    <path id="Path_422" data-name="Path 422" d="M308,449.914l-.02,2.427c-.541-2.613-.787-6.582-.894-6.785-.2-.38-.946-.115-2.469.214-1.755.382-5.187.319-7.075-1.52,2.458,1.233,6.074.7,8.147.024,1.3-.422,1.157-.79,1.176-3.2.009-1.287-.11-2.51-.637-2.749-2.422-1.093-5.168-.421-7.933-.421,3.287-1.037,5.421-1.751,8.765-.546L308,433.2Z" transform="translate(27 133)" fill="#e6a278" fill-rule="evenodd"/>
    <path id="Path_423" data-name="Path 423" d="M324.865,417.319c7.916-.876,13.4-1.693,16.764,7.618,9.764,3.961,8.813,5.819,14.979,14.433,2.14,2.961,1.688,3.337-.47,5.53-3.271,3.327-3.6,4.641-5.136,6.035-2.725,2.47-7.5,4.1-11.736,5.7-3.009,1.142-3.146,1.087-5.448,3.159a4.617,4.617,0,0,1-2.274,1.3c-2.68.351-5.593-2.071-6.313-1.448.366.29,2.107,1.777.87,2.118a7.3,7.3,0,0,1-2.958-.663c-.486-.165-1.066-.347-1.613-.552-.028.121-.06.984-.09,1.447H308V411.005l6.432-1.454a30.585,30.585,0,0,0,.406,3.168A44.9,44.9,0,0,1,324.865,417.319Zm-2.312,36.515c.2-.45.417-.922.655-1.4a1.552,1.552,0,0,1,1.975-.953c2.191.545,2.822,2.049,6.115,3.25,4.688-3.8,7.22-9.525,11.042-12.3a16.26,16.26,0,0,1-10.223-7.995c-2.469,7.313-3.346,8.376-9.3,15.429C322.686,451.041,322.659,452.312,322.553,453.834Z" transform="translate(27 133)" fill="#e6a278" fill-rule="evenodd"/>
    <path id="Path_424" data-name="Path 424" d="M321.529,460.554c-.028.121-.06.984-.09,1.447H320.2c.426-3.535.753-9.159.962-10.414a7.914,7.914,0,0,0-.6-5.23l1.859,1.2c5.921-5.923,5.9-7.813,9.184-15.307l.452,2.357c-2.424,7.155-3.335,8.258-9.236,15.254-.136,1.178-.162,2.448-.269,3.971C322.363,454.78,320.645,458.814,321.529,460.554Z" transform="translate(27 133)" fill="#d9966c" fill-rule="evenodd"/>
    <path id="Path_425" data-name="Path 425" d="M324.865,417.319c7.916-.876,13.4-1.693,16.764,7.618,9.764,3.961,8.813,5.819,14.979,14.433,2.14,2.961,1.688,3.337-.47,5.53-3.271,3.327-3.6,4.641-5.136,6.035-2.725,2.47-7.5,4.1-11.736,5.7-3.009,1.142-3.146,1.087-5.448,3.159a4.617,4.617,0,0,1-2.274,1.3c-2.68.351-5.593-2.071-6.313-1.448a4.216,4.216,0,0,1,1.285,1.516,7.51,7.51,0,0,1-2.668-1.7c-1-1.165,1.581-.96,2.39-.688,2.791.935,4.044,1.364,4.94,1.229,1.228-.185,1.794-1.425,4.717-3.868a14.475,14.475,0,0,1,2.391-1.593c6.944-3.792,9.845-3.855,16.517-10.438,1.587-1.566,1.878-2.418.245-4.774-3.555-5.128-8.54-13.079-14.879-12.486-.429-4.942-2.938-7.183-6.253-8.124-2.834-.8-6.707-.2-10.745-.387-1.636-.837-8.4-3.757-9.083-5.182a5.3,5.3,0,0,1-.267-3.462l.613-.139a30.585,30.585,0,0,0,.406,3.168A44.852,44.852,0,0,1,324.865,417.319ZM316.523,462h1.915a62.572,62.572,0,0,0-.955-6.349c1.587-4.039,1.287-4.572,1.53-8.964-1.784,7.139-2.015,8.836-9.4,7.872,2.719,1.438,3.345,1.16,6.45,1.53C316.218,457.96,316.391,460.57,316.523,462ZM309,422.4c-.049,6.246.347,8.922,2.567,10.454a16.718,16.718,0,0,0,12.248,2.428,12.091,12.091,0,0,0,6.025-2.859c.636,1.288,1.2,2.393,1.787,3.45q.237-.676.493-1.437a16.255,16.255,0,0,0,10.223,7.995c-3.822,2.775-6.354,8.5-11.042,12.3-3.293-1.2-3.924-2.705-6.115-3.25a1.845,1.845,0,0,0-1-.006c2.818.958,4.733,3.758,7.077,3.883,1.617.087,10-8.886,11.26-10.491,1.957-2.5,3.289-6.048,6.67-8.4-3.682.884-4.658,2.354-6.124,4.481-2.3-1.171-9.782-4.577-10.534-9.966-.141-1.006,2.266-1.62,5.615-2.99-2.593.165-4.468.448-6.215-.361-1.68-.779-3.241-2.786-5.21-4.229,3.995,4.685,4.375,8.438-2.776,10.039a15.442,15.442,0,0,1-11.844-2.1C309.781,429.66,310.064,427.094,309,422.4Zm18.582,21.616a29.754,29.754,0,0,0-1.24-7.822,92.946,92.946,0,0,1-.282,9.788C326.63,445.271,327.131,444.627,327.578,444.014Z" transform="translate(27 133)" fill="#d9966c" fill-rule="evenodd"/>
    <path id="Path_426" data-name="Path 426" d="M314.551,409.3a34.588,34.588,0,0,0,.549,5.7c-.325,3.2-4.523,4.371-7.1,5.54V410.493l.243-.7Z" transform="translate(27 133)" fill="#d9966c" fill-rule="evenodd"/>
    <path id="Path_427" data-name="Path 427" d="M308,449.914l.021,2.427c.541-2.613.786-6.582.892-6.785.2-.38.947-.115,2.471.214a7.693,7.693,0,0,0,6.637-1.628c-2.456,1.233-5.636.812-7.71.133-1.3-.422-1.158-.79-1.176-3.2-.009-1.287.11-2.51.638-2.749,2.422-1.093,4.73-.529,7.495-.529-3.285-1.037-4.982-1.643-8.326-.438L308,433.2Z" transform="translate(27 133)" fill="#d9966c" fill-rule="evenodd"/>
    <path id="Path_428" data-name="Path 428" d="M315.519,401.876c.355-.457.491-.363.688-.31.438.118.3.7.258,1.368-.024.386.171.8.148,1.46-.037,1.147-.622,1.7-1.216,2.7a.6.6,0,0,1-.754.185l.5-4.891Z" transform="translate(27 133)" fill="#e6a278" fill-rule="evenodd"/>
    <path id="Path_429" data-name="Path 429" d="M300.347,401.983c-.356-.457-.492-.364-.689-.31-.438.119-.3.7-.257,1.368.024.385-.172.794-.15,1.46.039,1.147.624,1.7,1.216,2.7a.594.594,0,0,0,.754.184l-.5-4.891Z" transform="translate(27 133)" fill="#eab088" fill-rule="evenodd"/>
    <path id="Path_430" data-name="Path 430" d="M308.127,415.965l-.1,0a5.6,5.6,0,0,1-2.409-.3c-.616-.268-.908-.884-1.746-1.711-.708-.7-1.981-1.408-2.277-2.16-.4-1.022-.211-2.137-.436-3.694a31.254,31.254,0,0,1-.771-3.522c-.036-1.3.214-2.586.207-4.024-.011-2.782-.032-4.55,1.653-5.936v0a7.248,7.248,0,0,1,1.55-.963.11.11,0,0,1,.019-.009l.11-.051.064-.028c.03-.013.059-.024.088-.038l.087-.037.1-.038.083-.033c.04-.016.08-.03.121-.045l.058-.021.179-.063h0c2.993-1,6.774-.562,9.065,1.324,1.684,1.385,1.664,3.153,1.651,5.936-.006,1.439.244,2.729.209,4.024a32.182,32.182,0,0,1-.772,3.523c-.225,1.557-.032,2.671-.436,3.693-.3.752-1.568,1.46-2.276,2.16-.839.828-1.13,1.442-1.746,1.711A5.256,5.256,0,0,1,308.127,415.965Z" transform="translate(27 133)" fill="#eab088" fill-rule="evenodd"/>
    <path id="Path_431" data-name="Path 431" d="M308.127,415.965l-.1,0h-.019V392.773a9.156,9.156,0,0,1,5.76,1.846c1.684,1.385,1.664,3.153,1.651,5.936-.006,1.439.244,2.729.209,4.024a32.181,32.181,0,0,1-.772,3.523c-.225,1.557-.032,2.671-.436,3.693-.3.752-1.568,1.46-2.276,2.16-.839.828-1.13,1.442-1.746,1.711A5.291,5.291,0,0,1,308.127,415.965Z" transform="translate(27 133)" fill="#e6a278" fill-rule="evenodd"/>
    <path id="Path_432" data-name="Path 432" d="M306.245,400.86a1.021,1.021,0,0,0-.339-.424l.05.148a1.694,1.694,0,0,0-.713-.386,3.284,3.284,0,0,1,.392.358,6.435,6.435,0,0,0-.693-.5,3.757,3.757,0,0,0-2.3-.4,3.079,3.079,0,0,0-.822.143,2.536,2.536,0,0,1,.3-.005,1.505,1.505,0,0,0-1.038.965,1.6,1.6,0,0,1,1.418-.492c.438.061.721.3,1.461.5l-.263-.174c.376.17.72.379,1.087.564.566.287.581.069.855.288a.5.5,0,0,0,.407.137C306.316,401.469,306.39,401.229,306.245,400.86Z" transform="translate(27 133)" fill="#120d0a" fill-rule="evenodd"/>
    <path id="Path_433" data-name="Path 433" d="M309.37,400.862a1.007,1.007,0,0,1,.338-.424l-.051.148a1.677,1.677,0,0,1,.713-.384,3.2,3.2,0,0,0-.391.356,6.63,6.63,0,0,1,.689-.5,3.756,3.756,0,0,1,2.3-.4,2.991,2.991,0,0,1,.819.143,2.647,2.647,0,0,0-.3-.006,1.5,1.5,0,0,1,1.036.963,1.591,1.591,0,0,0-1.415-.491c-.437.061-.719.3-1.46.5l.263-.174c-.374.17-.717.378-1.084.563-.565.286-.579.069-.854.287a.5.5,0,0,1-.4.138C309.3,401.47,309.225,401.229,309.37,400.862Z" transform="translate(27 133)" fill="#120d0a" fill-rule="evenodd"/>
    <path id="Path_434" data-name="Path 434" d="M310.565,395.969c-1.7-.142-2.781-.689-4.5.062-1.381-.2-2.989-.453-3.492.106a2.109,2.109,0,0,0-.256,2.206l-.626-.625a10.276,10.276,0,0,0-.374,3.437l-.751-.563c.076,2.575.364,3.187.469,5.625-1.137-1.93-.6-4.244-1.812-5.092a15.032,15.032,0,0,1,.344-6.234l-.75.39a9.523,9.523,0,0,1,.672-1.281,1.883,1.883,0,0,0-1.11.718c.8-1.507,2.2-2.136,3.282-3.64a2.063,2.063,0,0,0-1.345.453c.766-1.625,1.683-1.9,3.016-2.421a2.6,2.6,0,0,1-.484-1.266c1.028,1.026,2.767.783,3.781.61-.442-.4-.823-.656-.688-1.454.331.721.78.792,1.407.969l-.423-.671a14.405,14.405,0,0,0,3.483,1.546c.867.371,3.91,2.078,4.125.657.275.668.151.987-.313,1.218a6.479,6.479,0,0,0,1.444-.085l-.757.336c1.981,1.1,1.664,1.9,2,4.187a5.892,5.892,0,0,0-.875-2.093,30.4,30.4,0,0,1,.9,2.968,9.737,9.737,0,0,1-.313,2.9c-.037.412.228.816.157,1.22a27.09,27.09,0,0,0-.376,3.031,13.616,13.616,0,0,1-.25-1.937A26.627,26.627,0,0,1,315,406.922a24.964,24.964,0,0,0,.039-3.523,36.009,36.009,0,0,0-.181-4.266c-.368-2.964-1.36-3.6-2.18-3.537C311.918,395.651,311.02,396.007,310.565,395.969Z" transform="translate(27 133)" fill="#30190f" fill-rule="evenodd"/>
  </g>
</svg>
