<svg xmlns="http://www.w3.org/2000/svg" width="81.014" height="74.997" viewBox="0 0 81.014 74.997">
  <g id="Group_13" data-name="Group 13" transform="translate(-294 -362)">
    <path id="Path_548" data-name="Path 548" d="M339.447,287.525c-.555-3.115-.841-5.332-2.137-6.436l1.383-2.65c1.279.67,2.1,1.881,2.719,4.121.4,1.453.726,2.966.99,4.449Z" transform="translate(27 133)" fill="#1e2937" fill-rule="evenodd"/>
    <path id="Path_549" data-name="Path 549" d="M313.128,260.387c2.888,2.121,4.418.071,5.213,1.4,1.969,3.271.635,7.078-.023,10.465,1.837,1.622,1.963,6.176.316,9.319a11.448,11.448,0,0,1,.583,2.542c4.671-1.484,7.96.66,12.336-1.113-.158-2.336-.877-3.761-.338-5.7.223-.813,2.078-1.034,2.773-1.02a1.8,1.8,0,0,1,2.013-.265,2.073,2.073,0,0,1,1.8-.239c.768-.094,1.276-.067,1.572.871a26.456,26.456,0,0,1,.614,2.993,2.329,2.329,0,0,1-.441,2.31,16.012,16.012,0,0,1-2.7,2.186c-1.439,1.084-3.094,2.142-4.713,3.133a46.672,46.672,0,0,1-11.267,5.161c-1.885.54-3.737.7-5.654,1.174-.918.228-1.636.9-2.664.277-.384-.233-.418-.479-.952-1.082-3.586-4.682-3.225-7.3-2.754-13.077l-.37-3.919.793-12.283Z" transform="translate(27 133)" fill="#e6a278" fill-rule="evenodd"/>
    <path id="Path_550" data-name="Path 550" d="M316.7,261.363c.744-.085,1.271-.2,1.639.418,1.969,3.271.635,7.078-.023,10.465,1.837,1.622,1.963,6.176.316,9.319a11.448,11.448,0,0,1,.583,2.542c4.671-1.484,7.96.66,12.336-1.113-.158-2.336-.877-3.761-.338-5.7a.892.892,0,0,1,.423-.5c-.288,2.814,1.36,5.743.641,6.51-1.634,1.739-6.887.475-11.414,1.337a16.543,16.543,0,0,0-5.027,1.9,5.445,5.445,0,0,1,2.7-2.329,8.521,8.521,0,0,0-.4-1.817c-.342-.563-1.429-.088-2.056-.551,3.1-.354,3.361-5.372,2.111-8.15-.483-1.076-.795-1.444-2.217-1.235.875-.771,1.607-.435,1.9-1.332C318.665,268.726,318.633,263.875,316.7,261.363Zm23.25,18.065a.789.789,0,0,0-.6-.228c-.486.046-.458.441-.962.539s-.735-.057-1.132.054a1.412,1.412,0,0,0-.656.4c-.343.108-.823-.211-1.075.026-.541.509-.235,1.168-.571,1.936a12.787,12.787,0,0,1-2.313,3.229c-1.469,1.627-4.441,3.14-7.566,4.32-3.752,1.416-6.231,1.465-9.6,2.368-.7.188-1.3.5-1.549.519-.343.025-.627-.132-1.11-.492l-.758,1.281a1.562,1.562,0,0,0,.484.49c1.028.624,1.746-.05,2.664-.277,1.917-.471,3.77-.634,5.654-1.174a46.711,46.711,0,0,0,11.267-5.161c1.619-.991,3.273-2.049,4.713-3.133a15.966,15.966,0,0,0,2.7-2.186,2.326,2.326,0,0,0,.441-2.31Z" transform="translate(27 133)" fill="#d9966c" fill-rule="evenodd"/>
    <path id="Path_551" data-name="Path 551" d="M310.4,251.461a19.007,19.007,0,0,1-1.06,4c.7.5,1.582,1.013,2.3,1.475,1.105.709,1.676,1.082,2.648,1.809,4.723.488,5.738,6.456,4.209,10.483-.753.8-.889.88-2.672,1.348l-3.563,5.548-6.988-13.739-1.694-10.271Z" transform="translate(27 133)" fill="#e6a278" fill-rule="evenodd"/>
    <path id="Path_552" data-name="Path 552" d="M310.4,251.461a19.007,19.007,0,0,1-1.06,4c.7.5,1.582,1.013,2.3,1.475,1.105.709,1.676,1.082,2.648,1.809,4.723.488,5.738,6.456,4.209,10.483-.1.1-.186.2-.268.278.465-3.382-.247-8.509-3.442-9.54-1.084-.351-2.308-.073-3.98.265a4.294,4.294,0,0,1,2.832-1.43c-2.088-1.135-3.193-1.459-4.765-3.256l.794-2.727L303.893,254l-.312-1.889Z" transform="translate(27 133)" fill="#d9966c" fill-rule="evenodd"/>
    <path id="Path_553" data-name="Path 553" d="M284.415,269.369c.161,4.478,2.347,12.424,5.829,18a10.075,10.075,0,0,1,1.472,6.146c-.211,3.744-2.739,4.9-3.807,9.637l24.726.847c-.187-9,1.309-11.255-.159-19.7.868-3.018.829-4.241-.186-8.021l1.668-3.626-.847-11.542L305.8,252l-7.729-.847Z" transform="translate(27 133)" fill="#eab088" fill-rule="evenodd"/>
    <path id="Path_554" data-name="Path 554" d="M284.415,269.369c.161,4.478,2.347,12.424,5.829,18a10.075,10.075,0,0,1,1.472,6.146c-.143,2.53-1.345,3.881-2.437,5.952,2.091-1.2,2.659-1.518,3.176-3.015.975-2.821.254-8.459-1.967-10.928l2.276.476a20.98,20.98,0,0,1-4-5.331,12.21,12.21,0,0,1-1.419-8.585,3.594,3.594,0,0,1,1.183-1.869c1.223-1.111,2.059-1.022,3.121-2.429l-.533-1.281-2.435-2.821Z" transform="translate(27 133)" fill="#e6a278" fill-rule="evenodd"/>
    <path id="Path_555" data-name="Path 555" d="M304.958,303.732l7.677.265c-.187-9,1.309-11.255-.159-19.7.868-3.018.829-4.241-.186-8.021l1.668-3.626-.847-11.542L305.8,252l-.847-.093v51.821Z" transform="translate(27 133)" fill="#e6a278" fill-rule="evenodd"/>
    <path id="Path_556" data-name="Path 556" d="M311.35,303.952l1.285.045c-.187-9,1.309-11.255-.159-19.7.868-3.018,1.041-3.978.026-7.756,1.786-1.745,3.541-4.074,3.921-6.444a7.664,7.664,0,0,0-.606-3.977,27.286,27.286,0,0,0-2.18-3.951c-.123.383,2.94,6.105.569,10.287-2.387,4.207-7.042,3.272-7.361.35.538,3.952,2.59,3.574,4.711,3.972.632,2.669,1.126,4.507.152,6.933-.473,1.181-2.577,1.306-2.853.445-.541-1.693.071-3.894-.105-5.843a15.116,15.116,0,0,0-.66,7.187c.239,1.743.6,3.01.352,4.264-.121.6-.353,1.11-.385,1.483-.1,1.1.585.455.877,1.323.283-.727.589-1.024.581-1.432-.005-.257-.4-.684-.449-.912a40.479,40.479,0,0,0-.4-4.766c1.4.254,2.332-.079,2.9.527s.7,2.3.7,3.086c0,1.114-.363,1.347-1.037,2.052.281.019.791-.224.847.053.195.977-.219,4.128-.469,7.343C311.465,300.466,311.4,302.431,311.35,303.952Z" transform="translate(27 133)" fill="#d9966c" fill-rule="evenodd"/>
    <path id="Path_557" data-name="Path 557" d="M291.467,295.08c-.707,2.618-2.655,4.064-3.558,8.069l24.726.848c-.053-2.541.029-4.543.14-6.3-2.056,1.613-5.789,1.9-7.786,1.822C296.083,299.192,296.567,295.816,291.467,295.08Z" transform="translate(27 133)" fill="#2e3f50" fill-rule="evenodd"/>
    <path id="Path_558" data-name="Path 558" d="M304.958,303.732l7.677.265c-.053-2.541.029-4.543.14-6.3-1.964,1.495-5.788,1.786-7.786,1.822C304.921,299.519,304.958,303.349,304.958,303.732Z" transform="translate(27 133)" fill="#1e2937" fill-rule="evenodd"/>
    <path id="Path_559" data-name="Path 559" d="M299.093,249.82a33.494,33.494,0,0,0-3.335,1.88c-4.136.634-4.352.964-8,3.018-4.874.058-7.118,2.8-8.708,6.194-4.665,2.12-8.93,7.1-10.737,12.208a27.24,27.24,0,0,0-1.078,4.732c-.3,1.873-.423,3.088.264,4.039a4.034,4.034,0,0,0,1.508,1.173c.748.379,1.535,1.726,2.847,3.146a36.136,36.136,0,0,0,4.673,4.112c3.394,2.5,7.844,4.947,11.8,7.347a7.4,7.4,0,0,0,2.093,1.892,12.819,12.819,0,0,0,5.414.893c.973-.006,1.5-.092,1.759-.379.31-.341.247-.965.119-2.075a5.2,5.2,0,0,0,.186-2.3,1.679,1.679,0,0,0-.344-2.382c-.041-1.746-.278-1.962-1.482-1.984-.754-.015-1.486-.077-2.224-.1a2.511,2.511,0,0,0-1.747.421c-.709.448-1.317.9-1.774.845-4.967-5.936-4.037-4.207-7.365-11.6a9.439,9.439,0,0,0-3.807-4.387c3.77.4,7.29-3.5,7.624-7.174,4.775-2.129,9.545-4.823,9.794-11.78,3.772-2.722,3.434-2.377,5.613-6.486Z" transform="translate(27 133)" fill="#eab088" fill-rule="evenodd"/>
    <path id="Path_560" data-name="Path 560" d="M299.093,249.82a33.494,33.494,0,0,0-3.335,1.88c-4.136.634-4.352.964-8,3.018-4.874.058-7.118,2.8-8.708,6.194-4.665,2.12-8.93,7.1-10.737,12.208a27.24,27.24,0,0,0-1.078,4.732c-.3,1.873-.423,3.088.264,4.039a4.034,4.034,0,0,0,1.508,1.173c.748.379,1.535,1.726,2.847,3.146a36.136,36.136,0,0,0,4.673,4.112c3.394,2.5,7.844,4.947,11.8,7.347a7.4,7.4,0,0,0,2.093,1.892,12.819,12.819,0,0,0,5.414.893c.973-.006,1.5-.092,1.759-.379.31-.341.247-.965.119-2.075a5.2,5.2,0,0,0,.186-2.3,1.679,1.679,0,0,0-.344-2.382c-.041-1.746-.278-1.962-1.482-1.984-.754-.015-1.486-.077-2.224-.1a2.511,2.511,0,0,0-1.747.421c-.709.448-1.317.9-1.774.845-4.967-5.936-4.037-4.207-7.365-11.6a9.439,9.439,0,0,0-3.807-4.387c3.77.4,7.29-3.5,7.624-7.174,4.775-2.129,9.545-4.823,9.794-11.78.437-.314,2.273,1.16,5.944.994a23.156,23.156,0,0,1-6.1-2.179,45.281,45.281,0,0,0-4.537-.706c1.95.864,3.268.6,3.726,1.943.507,1.48-.423,3.318-1.479,4.649-1.921,2.421-4.554,4.855-7.411,5.084a4.439,4.439,0,0,1-3.307-1.113,5.378,5.378,0,0,0,2.171,3.018c-.666,2.894-.8,3.754-4.051,5.321-2.039-3.869-1.132-4.646.4-8.524-3.072,3.795-3.588,4.561-1.377,9.239a19.241,19.241,0,0,0-8.79.794c8.854.653,8.016,2.825,13.159,11.213a21.067,21.067,0,0,0,5.557,5.678,8.548,8.548,0,0,1,2.541-1.3,7.179,7.179,0,0,1,3.623.226c.567.333.587,1.128.185,1.3a9.95,9.95,0,0,1-1.741.563l1.867-.02c.661-.007.807.361.807.746a.982.982,0,0,1-.656,1.006,12.988,12.988,0,0,1-1.965.226l1.962.19c.494.049.488.375.435.656s-.138.5-.5.488a8.079,8.079,0,0,0-2.292.082c.513.3,1.394.329,1.88.627a.837.837,0,0,1-.1,1.39c-1.4.741-4.829.424-5.856-.473-.633-.55-.438-1.247-.983-2.379-6.018-1.388-14.744-9.037-18.743-13.713a4.041,4.041,0,0,1-2.7-1.437,3.066,3.066,0,0,1-.129-2.528c2.455-8.8,2.747-10.4,11.675-16.736a16.417,16.417,0,0,0,1.8,3.389c-.243-1.371-.965-4-.577-5.251a6.207,6.207,0,0,1,2.645-3.124,5.982,5.982,0,0,1,7.833.91c-.713-2.283-1.384-2.463-2.622-2.886a24.9,24.9,0,0,1,7.264-2.69,38.57,38.57,0,0,0,3.545-2.173Z" transform="translate(27 133)" fill="#e6a278" fill-rule="evenodd"/>
    <path id="Path_561" data-name="Path 561" d="M309.717,251.495c-1.8,4.641-3.9,6.7-2.2,11.093-.434-.566-2.439-3.366-2.362-3.91.087-.622.95,1.373.887.823-.25-2.207,1.165-4.294,2.454-7.476Z" transform="translate(27 133)" fill="#d9966c" fill-rule="evenodd"/>
    <path id="Path_562" data-name="Path 562" d="M305.062,256.485h-.087a5.076,5.076,0,0,1-2.185-.271c-.559-.243-.823-.8-1.583-1.552-.643-.634-1.8-1.277-2.065-1.959-.366-.928-.085-3.976-.29-5.39-.161-1.112-.774-.058-.8-1.155-.033-1.176.194-2.345.188-3.65-.011-2.523-.029-4.127,1.5-5.384h0a6.545,6.545,0,0,1,1.407-.874l.017-.008.1-.046.058-.025c.026-.012.053-.022.08-.033l.079-.034.085-.033q.037-.017.075-.03c.036-.014.073-.026.11-.041l.052-.019.163-.058h0a9.069,9.069,0,0,1,8.222,1.2c1.526,1.256,1.509,2.86,1.5,5.383-.006,1.306.221,2.475.188,3.65-.031,1.1-.83,1-.991,2.109-.2,1.413.156,2.5-.21,3.431a12.506,12.506,0,0,1-1.959,2.965c-.759.75-1.024,1.308-1.583,1.552A4.812,4.812,0,0,1,305.062,256.485Z" transform="translate(27 133)" fill="#e6a278" fill-rule="evenodd"/>
    <path id="Path_563" data-name="Path 563" d="M305.062,256.485h-.1V235.449a8.313,8.313,0,0,1,5.225,1.675c1.526,1.256,1.509,2.86,1.5,5.383-.006,1.306.221,2.475.188,3.65-.031,1.1-.8.626-.965,1.738-.2,1.414.13,3.033-.236,3.96a11.735,11.735,0,0,1-1.959,2.807c-.759.75-1.024,1.308-1.583,1.552A4.812,4.812,0,0,1,305.062,256.485Z" transform="translate(27 133)" fill="#d9966c" fill-rule="evenodd"/>
    <path id="Path_564" data-name="Path 564" d="M311.768,242.488c.323-.414.446-.329.625-.281.4.107.271.64.232,1.241-.021.35.156.721.136,1.324-.034,1.041-.564,1.542-1.1,2.449a.54.54,0,0,1-.684.167l.457-4.437Z" transform="translate(27 133)" fill="#e6a278" fill-rule="evenodd"/>
    <path id="Path_565" data-name="Path 565" d="M298.007,242.585c-.323-.414-.446-.329-.625-.281-.4.107-.27.64-.233,1.241.022.35-.156.722-.137,1.324a4.789,4.789,0,0,0,1.1,2.449.541.541,0,0,0,.685.167l-.457-4.437Z" transform="translate(27 133)" fill="#eab088" fill-rule="evenodd"/>
    <path id="Path_566" data-name="Path 566" d="M305.062,255.268h-.087A5.076,5.076,0,0,1,302.79,255c-.559-.243-.823-.8-1.583-1.552-.643-.634-1.8-1.277-2.065-1.958a17.453,17.453,0,0,1-.4-3.352,28.856,28.856,0,0,1-.7-3.194c-.033-1.176.194-2.346.188-3.65-.011-2.523-.029-4.127,1.5-5.384h0a6.544,6.544,0,0,1,1.407-.874l.017-.009.1-.045.058-.025c.026-.012.053-.022.08-.033l.079-.034.085-.033q.037-.017.075-.03l.11-.041.052-.019c.054-.021.109-.039.163-.057h0a9.069,9.069,0,0,1,8.222,1.2c1.526,1.256,1.509,2.86,1.5,5.383-.006,1.306.221,2.475.188,3.651a29.137,29.137,0,0,1-.7,3.194,17.349,17.349,0,0,1-.4,3.35c-.269.683-1.422,1.325-2.064,1.959-.759.751-1.024,1.309-1.583,1.553A4.851,4.851,0,0,1,305.062,255.268Z" transform="translate(27 133)" fill="#eab088" fill-rule="evenodd"/>
    <path id="Path_567" data-name="Path 567" d="M305.062,255.268h-.1V234.231a8.313,8.313,0,0,1,5.225,1.675c1.526,1.256,1.509,2.86,1.5,5.383-.006,1.306.221,2.475.188,3.651a29.137,29.137,0,0,1-.7,3.194,17.349,17.349,0,0,1-.4,3.35c-.269.683-1.422,1.325-2.064,1.959-.759.751-1.024,1.309-1.583,1.553A4.833,4.833,0,0,1,305.062,255.268Z" transform="translate(27 133)" fill="#e6a278" fill-rule="evenodd"/>
    <path id="Path_568" data-name="Path 568" d="M303.356,241.567a.909.909,0,0,0-.307-.385l.045.134a1.514,1.514,0,0,0-.647-.349,2.986,2.986,0,0,1,.356.323,5.874,5.874,0,0,0-.628-.453,3.405,3.405,0,0,0-2.084-.364,2.741,2.741,0,0,0-.746.129,2.444,2.444,0,0,1,.275,0,1.364,1.364,0,0,0-.941.876,1.444,1.444,0,0,1,1.288-.446c.4.055.653.271,1.325.449l-.238-.158c.342.155.653.345.986.513.514.259.526.063.776.261a.451.451,0,0,0,.369.124C303.422,242.119,303.487,241.9,303.356,241.567Z" transform="translate(27 133)" fill="#120d0a" fill-rule="evenodd"/>
    <path id="Path_569" data-name="Path 569" d="M306.192,241.568a.9.9,0,0,1,.306-.384l-.045.134a1.511,1.511,0,0,1,.646-.349,2.879,2.879,0,0,0-.355.323,5.787,5.787,0,0,1,.626-.452,3.4,3.4,0,0,1,2.081-.363,2.764,2.764,0,0,1,.743.13,2.073,2.073,0,0,0-.274,0,1.352,1.352,0,0,1,.938.873,1.437,1.437,0,0,0-1.283-.444c-.4.055-.651.27-1.322.448l.237-.157c-.341.154-.651.343-.983.511-.514.259-.525.063-.775.26a.449.449,0,0,1-.368.124C306.126,242.119,306.06,241.9,306.192,241.568Z" transform="translate(27 133)" fill="#120d0a" fill-rule="evenodd"/>
    <path id="Path_570" data-name="Path 570" d="M307.275,237.131c-1.539-.129-2.523-.625-4.082.057-1.253-.18-2.711-.411-3.167.1a1.912,1.912,0,0,0-.234,2l-.566-.566a9.368,9.368,0,0,0-.34,3.117l-.68-.51c.07,2.334.329,2.89.425,5.1-1.032-1.751-.543-3.849-1.643-4.619a13.62,13.62,0,0,1,.312-5.653l-.681.354a8.783,8.783,0,0,1,.609-1.161,1.7,1.7,0,0,0-1.005.651c.721-1.367,1.992-1.938,2.975-3.3a1.863,1.863,0,0,0-1.218.411c.694-1.475,1.525-1.72,2.734-2.2a2.358,2.358,0,0,1-.439-1.148c.932.931,2.51.709,3.429.553-.4-.362-.746-.6-.624-1.317.3.654.709.718,1.276.879l-.382-.61a13.035,13.035,0,0,0,3.16,1.4c.785.336,3.545,1.884,3.74.6.25.607.137.9-.284,1.1a5.884,5.884,0,0,0,1.311-.078l-.687.3c1.8,1,1.511,1.725,1.814,3.8a5.361,5.361,0,0,0-.794-1.9,27.964,27.964,0,0,1,.821,2.692,8.925,8.925,0,0,1-.283,2.636c-.033.372.2.739.142,1.1a24.664,24.664,0,0,0-.339,2.75,11.994,11.994,0,0,1-.227-1.758,24.283,24.283,0,0,1-1.05,5.144,22.411,22.411,0,0,0,.035-3.2A33.116,33.116,0,0,0,311.17,240c-.335-2.688-1.234-3.263-1.979-3.208C308.5,236.842,307.688,237.165,307.275,237.131Z" transform="translate(27 133)" fill="#30190f" fill-rule="evenodd"/>
    <path id="Path_571" data-name="Path 571" d="M291.585,267.589a13.93,13.93,0,0,0,3.916,5.4,10.909,10.909,0,0,0,9.592,1.259,5.49,5.49,0,0,0,3.011-3.167c-.73,2.162-1.308,3.327-2.67,4.171-3.382,2.093-8.3,1-10.542-.764a16.289,16.289,0,0,1-4.842-6.319Z" transform="translate(27 133)" fill="#e6a278" fill-rule="evenodd"/>
    <path id="Path_572" data-name="Path 572" d="M308.071,284.174c-4.046.571-4.787-.33-5.771-3.865.086,5,1.957,5.293,5.823,5.293Z" transform="translate(27 133)" fill="#e6a278" fill-rule="evenodd"/>
    <path id="Path_573" data-name="Path 573" d="M299.169,276.813H298.9c1.355,2.307,2.011,4.159,3.9,4.271,4.689.282,5.032-.233,5.733-3.53-.981,2.739-3.9,2.871-5.969,2.535C301.022,279.839,300.513,278.239,299.169,276.813Z" transform="translate(27 133)" fill="#e6a278" fill-rule="evenodd"/>
    <path id="Path_574" data-name="Path 574" d="M308.071,284.174a8.458,8.458,0,0,1-3.113.027v1.152a13.423,13.423,0,0,0,3.166.248Z" transform="translate(27 133)" fill="#d9966c" fill-rule="evenodd"/>
    <path id="Path_575" data-name="Path 575" d="M302.8,281.764c-3.687,4.4-6.031,5.035-9.954,4.156,2.95,1.383,4.029.963,6.777.212a3.82,3.82,0,0,1,1.972,1.552c1.157,1.734,2.322,4.589,4.647,5.49a11.943,11.943,0,0,1-2.436-2.779,10.98,10.98,0,0,0,2.568-.372c-1.592-.2-2.238-.316-2.8-.91a10.217,10.217,0,0,1-1.2-1.9c1.338-.129,2.628-.215,3.971-.292-2.928-1.194-3.83.427-5.639-1.482A6.649,6.649,0,0,0,302.8,281.764Z" transform="translate(27 133)" fill="#e6a278" fill-rule="evenodd"/>
    <path id="Path_576" data-name="Path 576" d="M304.958,281.147c2.673-.06,3.009-.895,3.582-3.593a3.974,3.974,0,0,1-3.582,2.622Z" transform="translate(27 133)" fill="#d9966c" fill-rule="evenodd"/>
    <path id="Path_577" data-name="Path 577" d="M312.732,280.779c-3.236.048-3.152-.229-3.769-3.119.661,1.989,1.6,2.286,3.714,2.186Z" transform="translate(27 133)" fill="#d9966c" fill-rule="evenodd"/>
    <path id="Path_578" data-name="Path 578" d="M331.143,278.529c0-.579.059-.708.229-.771.671-.242.859.4,1.007,1.077a9.106,9.106,0,0,1,.073,2.367c-.088.847.064,1.609-.092,1.806-.465.588-2.366.418-1.9.114C331.827,282.216,330.9,280.121,331.143,278.529Z" transform="translate(27 133)" fill="#d9966c" fill-rule="evenodd"/>
    <path id="Path_579" data-name="Path 579" d="M331.081,281.731c-.384.345-.019,2.46,1.078,6.137.271.909.572,1.916.913,3.126l-2.885.808c-.3-1.07-.616-2.125-.9-3.078-.829-2.774-2.386-6.69-.291-8.859a4.853,4.853,0,0,1,2.229-1.327.58.58,0,0,1,.787.387,1.819,1.819,0,0,1-.307,2.183A5.473,5.473,0,0,1,331.081,281.731Z" transform="translate(27 133)" fill="#1e2937" fill-rule="evenodd"/>
    <path id="Path_580" data-name="Path 580" d="M336.07,285.615a9.4,9.4,0,0,1,9.292,15.592c-1.6,1.027-7.169,2.465-9.68,2.555a9.392,9.392,0,0,1-6.437-6.6A9.486,9.486,0,0,1,336.07,285.615Z" transform="translate(27 133)" fill="#2e3f50" fill-rule="evenodd"/>
    <path id="Path_581" data-name="Path 581" d="M336.26,286.336a8.757,8.757,0,0,1,5.217.22,8.784,8.784,0,0,0-4.169.084,8.675,8.675,0,0,0-6.242,10.561,8.574,8.574,0,0,0,4.954,5.7l-.113.031a8.6,8.6,0,0,1,.353-16.6Z" transform="translate(27 133)" fill="#425469" fill-rule="evenodd"/>
    <path id="Path_582" data-name="Path 582" d="M333.947,276.271c.057.042.109.084.158.127a1.115,1.115,0,0,1,.4.545,13.676,13.676,0,0,1,.132,1.606l-.12.01a13.05,13.05,0,0,0-.13-1.592,1.022,1.022,0,0,0-.36-.479c-.082-.071-.176-.143-.277-.216C333.823,276.271,333.889,276.27,333.947,276.271Z" transform="translate(27 133)" fill="#d9966c" fill-rule="evenodd"/>
    <path id="Path_583" data-name="Path 583" d="M336.064,275.965a.638.638,0,0,1,.085.2c.1.47.183,1.621.225,2.125l-.12.01c-.041-.5-.12-1.646-.222-2.108a.634.634,0,0,0-.11-.221l.08.04C336.022,275.992,336.043,275.978,336.064,275.965Z" transform="translate(27 133)" fill="#d9966c" fill-rule="evenodd"/>
    <path id="Path_584" data-name="Path 584" d="M337.839,275.763a.642.642,0,0,1,.1.214c.1.47.182,1.621.224,2.125l-.119.01c-.041-.5-.12-1.646-.223-2.108a.667.667,0,0,0-.158-.281c.048.015.1.029.142.046Z" transform="translate(27 133)" fill="#d9966c" fill-rule="evenodd"/>
  </g>
</svg>
